<svg xmlns="http://www.w3.org/2000/svg" width="900" height="600" viewBox="0 0 900 600" role="img" aria-labelledby="title desc">
  <title id="title">Gadget Ops</title>
  <desc id="desc">Abstract dashboard preview for the Gadget Ops case study.</desc>
  <defs>
    <linearGradient id="bg" x1="0" y1="0" x2="1" y2="1">
      <stop offset="0%" stop-color="#0f172a" />
      <stop offset="100%" stop-color="#1e293b" />
    </linearGradient>
    <linearGradient id="panel" x1="0" y1="0" x2="1" y2="1">
      <stop offset="0%" stop-color="#1f2937" />
      <stop offset="100%" stop-color="#111827" />
    </linearGradient>
  </defs>
  <rect width="900" height="600" fill="url(#bg)" />
  <rect x="80" y="90" width="740" height="420" rx="28" fill="url(#panel)" stroke="#334155" stroke-width="2" />
  <rect x="120" y="130" width="220" height="110" rx="16" fill="#0ea5e9" opacity="0.25" />
  <rect x="360" y="130" width="220" height="110" rx="16" fill="#22c55e" opacity="0.22" />
  <rect x="600" y="130" width="180" height="110" rx="16" fill="#f97316" opacity="0.22" />
  <rect x="120" y="270" width="660" height="180" rx="20" fill="#0b1220" stroke="#1e293b" stroke-width="2" />
  <rect x="140" y="290" width="220" height="16" rx="8" fill="#334155" />
  <rect x="140" y="320" width="480" height="12" rx="6" fill="#1f2937" />
  <rect x="140" y="350" width="520" height="12" rx="6" fill="#1f2937" />
  <rect x="140" y="380" width="360" height="12" rx="6" fill="#1f2937" />
  <text x="130" y="515" fill="#e2e8f0" font-family="Georgia, 'Times New Roman', serif" font-size="28" letter-spacing="1">
    Gadget Ops
  </text>
  <text x="130" y="545" fill="#94a3b8" font-family="Georgia, 'Times New Roman', serif" font-size="16">
    Ops dashboard • Orders • Warranty • Affiliates
  </text>
</svg>
